HIERARCHY
ROOT Hips
{
	OFFSET 0.00000 0.00000 0.00000
	CHANNELS 6 Xposition Yposition Zposition Yrotation Zrotation Xrotation 
	JOINT Lumbar
	{
		OFFSET 0 0 0
		CHANNELS 3 Zrotation Xrotation Yrotation
		JOINT Neck
		{
			OFFSET 0.00 0.2701 0.00
			CHANNELS 3 Zrotation Xrotation Yrotation
			End Site
			{
				OFFSET 0.00 0.1379 0.00
			}
		}
		JOINT RightShoulder
		{
			OFFSET 0.0119 0.2289 0.1181
			CHANNELS 3 Zrotation Xrotation Yrotation
			JOINT RightElbow
			{
				OFFSET 0.00 -0.1475 0.00
				CHANNELS 2 Zrotation Yrotation
				JOINT RightWrist
				{
					OFFSET 0.00 -0.1605 0.00
					CHANNELS 2 Zrotation Xrotation
					End Site
					{
						OFFSET 0.0040 -0.1068 0.0006
					}
				}
			}
		}
		JOINT LeftShoulder
		{
			OFFSET 0.0119 0.2289 -0.1181
			CHANNELS 3 Zrotation Xrotation Yrotation
			JOINT LeftElbow
			{
				OFFSET 0.00 -0.1475 0.00
				CHANNELS 2 Zrotation Yrotation
				JOINT LeftWrist
				{
					OFFSET 0.00 -0.1605 0.00
					CHANNELS 2 Zrotation Xrotation
					End Site
					{
						OFFSET 0.0040 -0.1068 -0.0006
					}
				}
			}
		}
	}
	JOINT RightHip
	{
		OFFSET 0.0316 -0.0424 0.0458
		CHANNELS 3 Zrotation Xrotation Yrotation
		JOINT RightKnee
		{
			OFFSET 0.00 -0.2438 0.00
			CHANNELS 1 Zrotation
			JOINT RightAnkle
			{
				OFFSET 0.00 -0.2449 0.00
				CHANNELS 3 Zrotation Xrotation Yrotation
				End Site
				{
					OFFSET 0.1237 -0.0542 0.0051
				}
			}
		}
	}
	JOINT LeftHip
	{
		OFFSET 0.0316 -0.0424 -0.0458
		CHANNELS 3 Zrotation Xrotation Yrotation
		JOINT LeftKnee
		{
			OFFSET 0.00 -0.2438 0.00
			CHANNELS 1 Zrotation
			JOINT LeftAnkle
			{
				OFFSET 0.00 -0.2449 0.00
				CHANNELS 3 Zrotation Xrotation Yrotation
				End Site
				{
					OFFSET 0.1237 -0.0542 -0.0051
				}
			}
		}
	}
}
MOTION
Frames: 28
Frame Time: 0.02
-0.66717 0.56003 -0.48457 572.49568 0 -2.06549 0.39027 5.05439 -4.93316 -32.37286 -5.64306 -5.87732 56.87936 1.09673 20.75405 17.07869 99.09415 -16.3284 -7.75837 30.46111 10.34791 -53.33818 96.42594 -116.47705 34.84062 -1.71557 -6.00368 3.30029 -3.97413 -26.44159 3.79707 -3.23082 -4.70476 10.85387 0.13697 7.54413 -8.76155 -1.62463 2.43054 4.11197
-0.67158 0.56022 -0.47711 572.72392 0 -1.98953 0.57321 4.84536 -4.71464 -32.56396 -6.04201 -6.21467 55.84992 0.8951 18.16315 15.71739 97.50273 -14.843 -7.62692 30.5543 10.73391 -53.33179 96.76353 -116.85139 35.05465 -1.75832 -4.43326 2.499 -4.43666 -30.1106 2.2051 -2.93649 -4.10338 10.211 -0.29116 7.7621 -8.86934 -1.20172 2.36433 3.71593
-0.67579 0.56017 -0.46967 572.95451 0 -1.92937 0.72594 4.67351 -4.46042 -32.75674 -6.45362 -6.52586 54.78542 0.67693 15.44566 14.56013 95.97297 -13.80129 -7.39056 30.69908 11.15057 -53.32603 97.16323 -117.18325 35.26325 -1.79266 -2.53974 1.65061 -5.00653 -34.19895 0.30511 -2.62281 -3.4291 9.56767 -0.69025 8.29378 -8.95672 -0.60857 2.25323 3.08911
-0.68009 0.56025 -0.46226 573.19347 0 -1.86765 0.88827 4.48927 -4.22989 -32.95104 -6.85592 -6.84832 53.72972 0.46891 12.86468 13.35217 94.43442 -12.57306 -7.20149 30.82214 11.55662 -53.31964 97.52673 -117.53388 35.46054 -1.83227 -0.79677 0.85174 -5.49992 -38.06161 -1.43251 -2.32654 -2.83228 8.92597 -1.09614 8.65013 -9.05195 -0.09588 2.1669 2.58821
-0.6844 0.56026 -0.45466 573.39394 0 -1.78033 1.06772 4.28469 -3.96681 -33.13499 -7.27558 -7.17603 52.68723 0.24335 9.93942 11.99572 92.79015 -11.26805 -7.0132 30.93634 11.95087 -53.31458 97.92399 -117.89033 35.71681 -1.86648 0.97138 -0.06994 -6.11291 -42.09634 -3.27961 -1.99099 -2.04831 8.27975 -1.53105 9.14485 -9.15948 0.43933 2.06156 1.99718
-0.68863 0.56034 -0.44749 573.67556 0 -1.75141 1.20409 4.13245 -3.76389 -33.34094 -7.66019 -7.48505 51.61585 0.05235 7.70457 10.9859 91.39164 -10.23295 -6.79936 31.0814 12.3747 -53.30702 98.26624 -118.22204 35.84984 -1.90933 2.75809 -0.74423 -6.5011 -45.85217 -4.96075 -1.73386 -1.63446 7.64319 -1.89675 9.42543 -9.23535 0.96472 1.9854 1.53922
-0.69265 0.56065 -0.44145 574.16891 0 -1.87204 1.2331 4.10761 -3.73027 -33.60956 -7.95721 -7.75539 50.4678 -0.03296 7.41793 10.88357 90.63756 -9.83996 -6.53228 31.30443 12.89026 -53.29143 98.43397 -118.50979 35.6286 -1.98216 4.54196 -0.73898 -6.24367 -48.8672 -6.17412 -1.69703 -2.29047 7.02213 -2.09212 9.04365 -9.2136 1.41788 2.00033 1.50916
-0.69658 0.56102 -0.43585 574.74561 0 -2.05224 1.21899 4.1356 -3.75944 -33.89969 -8.21607 -8.00626 49.29527 -0.08311 7.83035 11.11881 90.13483 -9.70448 -6.24471 31.55598 13.43122 -53.27349 98.54539 -118.77103 35.28584 -2.06317 6.32718 -0.48038 -5.75548 -51.55896 -7.19655 -1.74042 -3.31661 6.41254 -2.21639 8.43494 -9.16238 1.85454 2.04618 1.62014
-0.70055 0.56136 -0.43008 575.29156 0 -2.21084 1.22212 4.14493 -3.76375 -34.17896 -8.48416 -8.26159 48.13992 -0.15244 7.9171 11.19528 89.53365 -9.44915 -5.97196 31.79126 13.94891 -53.25728 98.6875 -119.03513 35.00878 -2.13773 8.09504 -0.32688 -5.37189 -54.31299 -8.26154 -1.74807 -4.15357 5.80472 -2.3639 7.92589 -9.13359 2.29961 2.07845 1.6646
-0.70454 0.56168 -0.42419 575.80778 0 -2.34806 1.23465 4.13355 -3.75175 -34.46401 -8.7869 -8.53488 46.95748 -0.20891 8.03211 11.30227 88.87031 -9.21982 -5.67213 32.04238 14.51701 -53.2383 98.81068 -119.33722 34.68837 -2.22356 9.94708 -0.21553 -4.99403 -57.44692 -9.52294 -1.75176 -5.07502 5.16745 -2.54788 7.4407 -9.0663 2.74694 2.1078 1.71256
-0.70846 0.56206 -0.41867 576.4054 0 -2.54227 1.2171 4.17661 -3.78851 -34.74065 -9.00833 -8.76609 45.82617 -0.28365 8.25694 11.42277 88.39202 -8.99323 -5.42541 32.26647 14.98598 -53.2245 98.95855 -119.55363 34.42816 -2.28793 11.61729 0.04198 -4.54706 -59.6976 -10.32731 -1.78325 -5.91115 4.59426 -2.6404 6.85002 -9.07218 3.18341 2.15037 1.78803
-0.71222 0.56259 -0.41405 577.20985 0 -2.89201 1.13271 4.3636 -3.94963 -35.00137 -9.01367 -8.88903 44.84318 -0.41641 8.60684 11.49902 88.39449 -8.69734 -5.32922 32.41045 15.17288 -53.22581 99.19278 -119.54686 34.37481 -2.29153 12.80451 0.66209 -3.97307 -59.66683 -9.90255 -1.86984 -6.40393 4.19489 -2.48903 6.00291 -9.28911 3.59242 2.22876 1.9211
-0.71591 0.56316 -0.4098 578.09286 0 -3.29454 1.01859 4.6022 -4.1568 -35.25052 -8.93863 -8.96975 43.91276 -0.56883 9.04488 11.57605 88.56933 -8.39579 -5.28797 32.52597 15.25951 -53.23236 99.45265 -119.45378 34.38417 -2.27323 13.80304 1.41668 -3.33558 -58.74097 -9.02613 -1.98188 -6.79999 3.85961 -2.24979 5.05961 -9.58027 3.99037 2.31833 2.07523
-0.71962 0.56369 -0.40539 578.9383 0 -3.66456 0.9146 4.81264 -4.3398 -35.49676 -8.9009 -9.06795 42.9574 -0.71285 9.44827 11.6507 88.64333 -8.10366 -5.22278 32.65295 15.39311 -53.23635 99.69759 -119.39575 34.35771 -2.2646 14.87404 2.0964 -2.72179 -58.17202 -8.36309 -2.08402 -7.25411 3.49531 -2.05669 4.17244 -9.83657 4.3936 2.39849 2.21018
-0.72337 0.5643 -0.40095 579.79463 0 -4.07291 0.82355 5.04461 -4.53898 -35.77836 -8.85849 -9.17298 42.00451 -0.8535 9.85423 11.74518 88.8174 -7.79165 -5.1523 32.78613 15.52116 -53.24105 99.95447 -119.35399 34.35806 -2.25729 16.00289 2.84374 -2.12179 -57.80489 -7.65644 -2.18295 -7.66843 3.13128 -1.83504 3.22561 -10.09729 4.7957 2.49797 2.39007
-0.72703 0.56477 -0.39666 580.64575 0 -4.41286 0.69883 5.24356 -4.71421 -35.98314 -8.8073 -9.25362 41.06063 -1.00617 10.26532 11.79494 88.82538 -7.51657 -5.1064 32.90059 15.63731 -53.24552 100.19325 -119.2587 34.3189 -2.24215 16.96449 3.47793 -1.481 -56.80612 -6.93942 -2.29228 -8.12922 2.78135 -1.65274 2.38251 -10.36593 5.1972 2.55949 2.48005
-0.73047 0.56482 -0.39263 581.46383 0 -4.55335 0.49079 5.33624 -4.81529 -35.97962 -8.75121 -9.28079 40.11817 -1.18827 10.67611 11.71202 88.29078 -7.34091 -5.11317 32.95855 15.73919 -53.24823 100.37636 -119.03274 34.15672 -2.20876 17.52518 3.77358 -0.74325 -54.30719 -6.27278 -2.43457 -8.81394 2.45802 -1.60219 1.85523 -10.64633 5.60417 2.51317 2.31193
-0.73384 0.56472 -0.38872 582.27359 0 -4.62242 0.24982 5.39418 -4.88997 -35.89898 -8.6893 -9.28435 39.18551 -1.3817 11.08325 11.58407 87.5893 -7.20217 -5.14316 33.0006 15.83373 -53.2505 100.54061 -118.75678 33.95276 -2.16858 17.92085 3.94812 0.03267 -51.20093 -5.61752 -2.58401 -9.53323 2.14601 -1.59426 1.43556 -10.93095 6.01023 2.42809 2.05274
-0.73725 0.56468 -0.38478 583.08614 0 -4.72241 0.02238 5.46925 -4.97405 -35.85278 -8.6305 -9.29643 38.25486 -1.56947 11.48506 11.48091 86.99075 -7.04751 -5.16387 33.0576 15.93513 -53.2529 100.71329 -118.50648 33.76784 -2.13277 18.38286 4.1724 0.78948 -48.35723 -4.97936 -2.723 -10.18794 1.82654 -1.56622 0.96404 -11.20828 6.41373 2.36089 1.83772
-0.74064 0.56466 -0.38079 583.90496 0 -4.83089 -0.20068 5.54015 -5.06992 -35.80844 -8.56701 -9.31615 37.29689 -1.76024 11.92371 11.35964 86.28532 -6.88845 -5.18139 33.08142 16.01734 -53.25583 100.8871 -118.24079 33.58558 -2.0908 18.8765 4.4241 1.55428 -45.53666 -4.23366 -2.89366 -11.04681 1.51896 -1.5385 0.50193 -11.51015 6.82903 2.29328 1.61204
-0.74405 0.56458 -0.3769 584.70861 0 -4.90388 -0.43951 5.61122 -5.13542 -35.74248 -8.51281 -9.31514 36.3998 -1.94695 12.27876 11.26545 85.75896 -6.74831 -5.21002 33.17045 16.14009 -53.25743 101.05414 -117.99635 33.38608 -2.06033 19.26545 4.5879 2.31293 -42.53812 -3.71756 -2.9993 -11.48865 1.18861 -1.521 0.04648 -11.76184 7.22014 2.21679 1.38631
-0.7475 0.5644 -0.37328 585.46417 0 -4.89729 -0.72007 5.68744 -5.11371 -35.63235 -8.48747 -9.26096 35.64887 -2.12185 12.44445 11.25565 85.78082 -6.64301 -5.26648 33.44769 16.36853 -53.25577 101.20357 -117.82382 33.1572 -2.06338 19.42453 4.53971 3.02369 -39.18173 -3.86254 -2.92717 -10.78261 0.79124 -1.52505 -0.411 -11.86645 7.54108 2.12855 1.18543
-0.75099 0.56417 -0.36974 586.20577 0 -4.85702 -1.01385 5.76553 -5.0637 -35.50392 -8.47179 -9.18726 34.96263 -2.29173 12.51897 11.27494 85.98533 -6.55702 -5.33271 33.79041 16.64016 -53.25269 101.34724 -117.67468 32.91045 -2.07842 19.48153 4.40657 3.7297 -35.67741 -4.23592 -2.78884 -9.65544 0.37062 -1.53756 -0.86604 -11.92182 7.83853 2.03202 0.98712
-0.75449 0.56396 -0.36615 586.9589 0 -4.83125 -1.29753 5.84493 -5.03318 -35.38599 -8.45089 -9.12381 34.25887 -2.46246 12.60692 11.28168 86.09685 -6.46774 -5.39205 34.10058 16.89759 -53.25007 101.49589 -117.51459 32.66659 -2.08795 19.57373 4.31057 4.45288 -32.2516 -4.48622 -2.67805 -8.71154 -0.03895 -1.54433 -1.32563 -12.00379 8.14904 1.93708 0.78563
-0.75788 0.56377 -0.36262 587.69037 0 -4.80633 -1.60038 5.91382 -4.97484 -35.25572 -8.43313 -9.05369 33.50383 -2.63982 12.80922 11.28371 86.24484 -6.35675 -5.46176 34.42217 17.13118 -53.24829 101.63442 -117.35396 32.44413 -2.0972 19.70676 4.21558 5.11789 -28.74463 -4.81392 -2.57715 -7.79654 -0.45065 -1.561 -1.76721 -12.06657 8.44911 1.85005 0.58908
-0.7615 0.56352 -0.35899 588.46313 0 -4.77268 -1.86511 6.00576 -4.96674 -35.14836 -8.41135 -8.99313 32.87273 -2.8018 12.75651 11.30344 86.36235 -6.2949 -5.51291 34.73549 17.42554 -53.24435 101.79229 -117.20077 32.17244 -2.11034 19.73336 4.10119 5.89764 -25.39431 -5.03968 -2.44124 -6.72905 -0.86293 -1.55792 -2.24686 -12.15953 8.76578 1.74502 0.38449
-0.76566 0.56315 -0.35512 589.3585 0 -4.72252 -2.0287 6.15843 -5.11557 -35.10463 -8.37474 -8.96405 32.55241 -2.9246 11.9805 11.36196 86.35227 -6.36568 -5.50128 35.01249 17.87091 -53.23544 102.00978 -117.06244 31.77752 -2.12829 19.48593 3.94288 7.03478 -22.39184 -4.88361 -2.21267 -5.27294 -1.2763 -1.50312 -2.83465 -12.33178 9.1296 1.59262 0.15324
-0.77004 0.56273 -0.35116 590.29496 0 -4.66521 -2.15184 6.33477 -5.31397 -35.08586 -8.33388 -8.94522 32.35789 -3.03173 10.95865 11.4382 86.30604 -6.4849 -5.4722 35.2787 18.37704 -53.2243 102.24577 -116.9314 31.3325 -2.1504 19.13665 3.77061 8.27909 -19.57823 -4.62441 -1.95331 -3.69055 -1.68821 -1.42695 -3.46079 -12.53959 9.51115 1.4224 -0.08528
